<svg width="366" height="97" viewBox="0 0 366 97" fill="none" xmlns="http://www.w3.org/2000/svg">
<path d="M157.805 40.8H197.805V0.8H157.805V40.8ZM20.2491 68.2V71.92H12.8491V96H8.28906V71.92H0.849063V68.2H20.2491ZM36.2672 73.6C37.9472 73.6 39.4405 73.96 40.7472 74.68C42.0805 75.4 43.1205 76.4667 43.8672 77.88C44.6405 79.2933 45.0272 81 45.0272 83V96H40.5072V83.68C40.5072 81.7067 40.0139 80.2 39.0272 79.16C38.0405 78.0933 36.6939 77.56 34.9872 77.56C33.2805 77.56 31.9205 78.0933 30.9072 79.16C29.9205 80.2 29.4272 81.7067 29.4272 83.68V96H24.8672V66.4H29.4272V76.52C30.2005 75.5867 31.1739 74.8667 32.3472 74.36C33.5472 73.8533 34.8539 73.6 36.2672 73.6ZM71.0438 84.44C71.0438 85.2667 70.9904 86.0133 70.8838 86.68H54.0438C54.1771 88.44 54.8304 89.8533 56.0038 90.92C57.1771 91.9867 58.6171 92.52 60.3238 92.52C62.7771 92.52 64.5104 91.4933 65.5238 89.44H70.4437C69.7771 91.4667 68.5638 93.1333 66.8038 94.44C65.0704 95.72 62.9104 96.36 60.3238 96.36C58.2171 96.36 56.3238 95.8933 54.6438 94.96C52.9904 94 51.6838 92.6667 50.7238 90.96C49.7904 89.2267 49.3238 87.2267 49.3238 84.96C49.3238 82.6933 49.7771 80.7067 50.6838 79C51.6171 77.2667 52.9104 75.9333 54.5638 75C56.2438 74.0667 58.1638 73.6 60.3238 73.6C62.4038 73.6 64.2571 74.0533 65.8838 74.96C67.5104 75.8667 68.7771 77.1467 69.6838 78.8C70.5904 80.4267 71.0438 82.3067 71.0438 84.44ZM66.2838 83C66.2571 81.32 65.6571 79.9733 64.4838 78.96C63.3104 77.9467 61.8571 77.44 60.1238 77.44C58.5504 77.44 57.2038 77.9467 56.0838 78.96C54.9638 79.9467 54.2971 81.2933 54.0838 83H66.2838ZM97.0419 73.6C98.7752 73.6 100.322 73.96 101.682 74.68C103.069 75.4 104.149 76.4667 104.922 77.88C105.695 79.2933 106.082 81 106.082 83V96H101.562V83.68C101.562 81.7067 101.069 80.2 100.082 79.16C99.0952 78.0933 97.7485 77.56 96.0419 77.56C94.3352 77.56 92.9752 78.0933 91.9619 79.16C90.9752 80.2 90.4819 81.7067 90.4819 83.68V96H85.9219V73.96H90.4819V76.48C91.2285 75.5733 92.1752 74.8667 93.3219 74.36C94.4952 73.8533 95.7352 73.6 97.0419 73.6ZM110.378 84.88C110.378 82.6667 110.832 80.7067 111.738 79C112.672 77.2933 113.925 75.9733 115.498 75.04C117.098 74.08 118.858 73.6 120.778 73.6C122.512 73.6 124.018 73.9467 125.298 74.64C126.605 75.3067 127.645 76.1467 128.418 77.16V73.96H133.018V96H128.418V92.72C127.645 93.76 126.592 94.6267 125.258 95.32C123.925 96.0133 122.405 96.36 120.698 96.36C118.805 96.36 117.072 95.88 115.498 94.92C113.925 93.9333 112.672 92.5733 111.738 90.84C110.832 89.08 110.378 87.0933 110.378 84.88ZM128.418 84.96C128.418 83.44 128.098 82.12 127.458 81C126.845 79.88 126.032 79.0267 125.018 78.44C124.005 77.8533 122.912 77.56 121.738 77.56C120.565 77.56 119.472 77.8533 118.458 78.44C117.445 79 116.618 79.84 115.978 80.96C115.365 82.0533 115.058 83.36 115.058 84.88C115.058 86.4 115.365 87.7333 115.978 88.88C116.618 90.0267 117.445 90.9067 118.458 91.52C119.498 92.1067 120.592 92.4 121.738 92.4C122.912 92.4 124.005 92.1067 125.018 91.52C126.032 90.9333 126.845 90.08 127.458 88.96C128.098 87.8133 128.418 86.48 128.418 84.96ZM144.328 77.68V89.88C144.328 90.7067 144.514 91.3067 144.888 91.68C145.288 92.0267 145.954 92.2 146.888 92.2H149.688V96H146.088C144.034 96 142.461 95.52 141.368 94.56C140.274 93.6 139.728 92.04 139.728 89.88V77.68H137.128V73.96H139.728V68.48H144.328V73.96H149.688V77.68H144.328ZM173.851 73.96V96H169.291V93.4C168.571 94.3067 167.624 95.0267 166.451 95.56C165.304 96.0667 164.077 96.32 162.771 96.32C161.037 96.32 159.477 95.96 158.091 95.24C156.731 94.52 155.651 93.4533 154.851 92.04C154.077 90.6267 153.691 88.92 153.691 86.92V73.96H158.211V86.24C158.211 88.2133 158.704 89.7333 159.691 90.8C160.677 91.84 162.024 92.36 163.731 92.36C165.437 92.36 166.784 91.84 167.771 90.8C168.784 89.7333 169.291 88.2133 169.291 86.24V73.96H173.851ZM184.427 77.16C185.094 76.04 185.974 75.1733 187.067 74.56C188.187 73.92 189.507 73.6 191.027 73.6V78.32H189.867C188.081 78.32 186.721 78.7733 185.787 79.68C184.881 80.5867 184.427 82.16 184.427 84.4V96H179.867V73.96H184.427V77.16ZM215.419 84.44C215.419 85.2667 215.365 86.0133 215.259 86.68H198.419C198.552 88.44 199.205 89.8533 200.379 90.92C201.552 91.9867 202.992 92.52 204.699 92.52C207.152 92.52 208.885 91.4933 209.899 89.44H214.819C214.152 91.4667 212.939 93.1333 211.179 94.44C209.445 95.72 207.285 96.36 204.699 96.36C202.592 96.36 200.699 95.8933 199.019 94.96C197.365 94 196.059 92.6667 195.099 90.96C194.165 89.2267 193.699 87.2267 193.699 84.96C193.699 82.6933 194.152 80.7067 195.059 79C195.992 77.2667 197.285 75.9333 198.939 75C200.619 74.0667 202.539 73.6 204.699 73.6C206.779 73.6 208.632 74.0533 210.259 74.96C211.885 75.8667 213.152 77.1467 214.059 78.8C214.965 80.4267 215.419 82.3067 215.419 84.44ZM210.659 83C210.632 81.32 210.032 79.9733 208.859 78.96C207.685 77.9467 206.232 77.44 204.499 77.44C202.925 77.44 201.579 77.9467 200.459 78.96C199.339 79.9467 198.672 81.2933 198.459 83H210.659ZM228.777 84.96C228.777 82.6933 229.23 80.7067 230.137 79C231.07 77.2667 232.35 75.9333 233.977 75C235.604 74.0667 237.47 73.6 239.577 73.6C242.244 73.6 244.444 74.24 246.177 75.52C247.937 76.7733 249.124 78.5733 249.737 80.92H244.817C244.417 79.8267 243.777 78.9733 242.897 78.36C242.017 77.7467 240.91 77.44 239.577 77.44C237.71 77.44 236.217 78.1067 235.097 79.44C234.004 80.7467 233.457 82.5867 233.457 84.96C233.457 87.3333 234.004 89.1867 235.097 90.52C236.217 91.8533 237.71 92.52 239.577 92.52C242.217 92.52 243.964 91.36 244.817 89.04H249.737C249.097 91.28 247.897 93.0667 246.137 94.4C244.377 95.7067 242.19 96.36 239.577 96.36C237.47 96.36 235.604 95.8933 233.977 94.96C232.35 94 231.07 92.6667 230.137 90.96C229.23 89.2267 228.777 87.2267 228.777 84.96ZM252.761 84.88C252.761 82.6667 253.215 80.7067 254.121 79C255.055 77.2933 256.308 75.9733 257.881 75.04C259.481 74.08 261.241 73.6 263.161 73.6C264.895 73.6 266.401 73.9467 267.681 74.64C268.988 75.3067 270.028 76.1467 270.801 77.16V73.96H275.401V96H270.801V92.72C270.028 93.76 268.975 94.6267 267.641 95.32C266.308 96.0133 264.788 96.36 263.081 96.36C261.188 96.36 259.455 95.88 257.881 94.92C256.308 93.9333 255.055 92.5733 254.121 90.84C253.215 89.08 252.761 87.0933 252.761 84.88ZM270.801 84.96C270.801 83.44 270.481 82.12 269.841 81C269.228 79.88 268.415 79.0267 267.401 78.44C266.388 77.8533 265.295 77.56 264.121 77.56C262.948 77.56 261.855 77.8533 260.841 78.44C259.828 79 259.001 79.84 258.361 80.96C257.748 82.0533 257.441 83.36 257.441 84.88C257.441 86.4 257.748 87.7333 258.361 88.88C259.001 90.0267 259.828 90.9067 260.841 91.52C261.881 92.1067 262.975 92.4 264.121 92.4C265.295 92.4 266.388 92.1067 267.401 91.52C268.415 90.9333 269.228 90.08 269.841 88.96C270.481 87.8133 270.801 86.48 270.801 84.96ZM292.511 73.6C294.244 73.6 295.791 73.96 297.151 74.68C298.537 75.4 299.617 76.4667 300.391 77.88C301.164 79.2933 301.551 81 301.551 83V96H297.031V83.68C297.031 81.7067 296.537 80.2 295.551 79.16C294.564 78.0933 293.217 77.56 291.511 77.56C289.804 77.56 288.444 78.0933 287.431 79.16C286.444 80.2 285.951 81.7067 285.951 83.68V96H281.391V73.96H285.951V76.48C286.697 75.5733 287.644 74.8667 288.791 74.36C289.964 73.8533 291.204 73.6 292.511 73.6ZM305.847 84.88C305.847 82.6667 306.301 80.7067 307.207 79C308.141 77.2933 309.394 75.9733 310.967 75.04C312.567 74.08 314.341 73.6 316.287 73.6C317.727 73.6 319.141 73.92 320.527 74.56C321.941 75.1733 323.061 76 323.887 77.04V66.4H328.487V96H323.887V92.68C323.141 93.7467 322.101 94.6267 320.767 95.32C319.461 96.0133 317.954 96.36 316.247 96.36C314.327 96.36 312.567 95.88 310.967 94.92C309.394 93.9333 308.141 92.5733 307.207 90.84C306.301 89.08 305.847 87.0933 305.847 84.88ZM323.887 84.96C323.887 83.44 323.567 82.12 322.927 81C322.314 79.88 321.501 79.0267 320.487 78.44C319.474 77.8533 318.381 77.56 317.207 77.56C316.034 77.56 314.941 77.8533 313.927 78.44C312.914 79 312.087 79.84 311.447 80.96C310.834 82.0533 310.527 83.36 310.527 84.88C310.527 86.4 310.834 87.7333 311.447 88.88C312.087 90.0267 312.914 90.9067 313.927 91.52C314.967 92.1067 316.061 92.4 317.207 92.4C318.381 92.4 319.474 92.1067 320.487 91.52C321.501 90.9333 322.314 90.08 322.927 88.96C323.567 87.8133 323.887 86.48 323.887 84.96ZM339.037 66.4V96H334.477V66.4H339.037ZM365.223 84.44C365.223 85.2667 365.17 86.0133 365.063 86.68H348.223C348.357 88.44 349.01 89.8533 350.183 90.92C351.357 91.9867 352.797 92.52 354.503 92.52C356.957 92.52 358.69 91.4933 359.703 89.44H364.623C363.957 91.4667 362.743 93.1333 360.983 94.44C359.25 95.72 357.09 96.36 354.503 96.36C352.397 96.36 350.503 95.8933 348.823 94.96C347.17 94 345.863 92.6667 344.903 90.96C343.97 89.2267 343.503 87.2267 343.503 84.96C343.503 82.6933 343.957 80.7067 344.863 79C345.797 77.2667 347.09 75.9333 348.743 75C350.423 74.0667 352.343 73.6 354.503 73.6C356.583 73.6 358.437 74.0533 360.063 74.96C361.69 75.8667 362.957 77.1467 363.863 78.8C364.77 80.4267 365.223 82.3067 365.223 84.44ZM360.463 83C360.437 81.32 359.837 79.9733 358.663 78.96C357.49 77.9467 356.037 77.44 354.303 77.44C352.73 77.44 351.383 77.9467 350.263 78.96C349.143 79.9467 348.477 81.2933 348.263 83H360.463Z" fill="#1D252C"/>
</svg>
